<?xml version="1.0" ?><!DOCTYPE svg  PUBLIC '-//W3C//DTD SVG 1.1//EN'  'http://www.w3.org/Graphics/SVG/1.1/DTD/svg11.dtd'><svg xmlns="http://www.w3.org/2000/svg" xmlns:xlink="http://www.w3.org/1999/xlink" xmlns:serif="http://www.serif.com/" width="100%" height="100%" viewBox="0 0 64 64" version="1.1" xml:space="preserve" style="fill-rule:evenodd;clip-rule:evenodd;stroke-linejoin:round;stroke-miterlimit:2;"><g transform="matrix(0.707107,-0.707107,0.707107,0.707107,-13.2548,32)"><g transform="matrix(0,0.714285,-0.966666,0,62.9333,9.85712)"><path d="M40.8,-3.185C40.8,-5.079 39.782,-6.896 37.969,-8.236C36.156,-9.575 33.697,-10.328 31.133,-10.328C31.044,-10.328 30.956,-10.328 30.867,-10.328C28.303,-10.328 25.844,-9.575 24.031,-8.236C22.218,-6.896 21.2,-5.079 21.2,-3.185C21.2,8.135 21.2,55.865 21.2,67.185C21.2,69.079 22.218,70.896 24.031,72.236C25.844,73.575 28.303,74.328 30.867,74.328C30.956,74.328 31.044,74.328 31.133,74.328C33.697,74.328 36.156,73.575 37.969,72.236C39.782,70.896 40.8,69.079 40.8,67.185L40.8,-3.185ZM35.2,-3.185L35.2,67.185C35.2,67.982 34.772,68.746 34.009,69.31C33.246,69.873 32.212,70.19 31.133,70.19L30.867,70.19C29.788,70.19 28.754,69.873 27.991,69.31C27.228,68.746 26.8,67.982 26.8,67.185L26.8,-3.185C26.8,-3.982 27.228,-4.746 27.991,-5.31C28.754,-5.873 29.788,-6.19 30.867,-6.19L31.133,-6.19C32.212,-6.19 33.246,-5.873 34.009,-5.31C34.772,-4.746 35.2,-3.982 35.2,-3.185Z"/></g><g transform="matrix(0.714285,0,0,0.966666,9.85712,1.06664)"><path d="M21.2,42.438L21.2,67.382C21.2,69.276 22.218,71.093 24.031,72.433C25.844,73.772 28.303,74.525 30.867,74.525C30.956,74.525 31.044,74.525 31.133,74.525C33.697,74.525 36.156,73.772 37.969,72.433C39.782,71.093 40.8,69.276 40.8,67.382C40.8,61.586 40.8,42.438 40.8,42.438C40.8,41.296 39.545,40.369 38,40.369C36.455,40.369 35.2,41.296 35.2,42.438L35.2,67.382C35.2,68.179 34.772,68.943 34.009,69.507C33.246,70.07 32.212,70.387 31.133,70.387L30.867,70.387C29.788,70.387 28.754,70.07 27.991,69.507C27.228,68.943 26.8,68.179 26.8,67.382C26.8,67.382 26.8,42.438 26.8,42.438C26.8,41.296 25.545,40.369 24,40.369C22.455,40.369 21.2,41.296 21.2,42.438Z"/></g><g transform="matrix(0.714285,0,0,0.966666,9.85712,1.06664)"><path d="M40.8,21.568L40.8,-3.185C40.8,-5.079 39.782,-6.896 37.969,-8.236C36.156,-9.575 33.697,-10.328 31.133,-10.328C31.044,-10.328 30.956,-10.328 30.867,-10.328C28.303,-10.328 25.844,-9.575 24.031,-8.236C22.218,-6.896 21.2,-5.079 21.2,-3.185C21.2,2.639 21.2,21.656 21.2,21.656C21.2,22.798 22.455,23.725 24,23.725C25.545,23.725 26.8,22.798 26.8,21.656C26.8,21.656 26.8,2.639 26.8,-3.185C26.8,-3.982 27.228,-4.746 27.991,-5.31C28.754,-5.873 29.788,-6.19 30.867,-6.19L31.133,-6.19C32.212,-6.19 33.246,-5.873 34.009,-5.31C34.772,-4.746 35.2,-3.982 35.2,-3.185C35.2,-3.185 35.2,21.568 35.2,21.568C35.2,22.709 36.455,23.637 38,23.637C39.545,23.637 40.8,22.709 40.8,21.568Z"/></g></g></svg>