<?xml version="1.0" ?><!DOCTYPE svg  PUBLIC '-//W3C//DTD SVG 1.1//EN'  'http://www.w3.org/Graphics/SVG/1.1/DTD/svg11.dtd'><svg xmlns="http://www.w3.org/2000/svg" xmlns:xlink="http://www.w3.org/1999/xlink" xmlns:serif="http://www.serif.com/" width="100%" height="100%" viewBox="0 0 64 64" version="1.1" xml:space="preserve" style="fill-rule:evenodd;clip-rule:evenodd;stroke-linejoin:round;stroke-miterlimit:2;"><g><path d="M30,7L29,7C27.895,7 27,7.895 27,9L27,13L19.434,13C14.545,13 9.856,14.942 6.399,18.399C2.942,21.856 1,26.545 1,31.434L1,55.472C1,57.469 1.793,59.383 3.205,60.795C4.617,62.207 6.531,63 8.528,63C8.528,63 8.529,63 8.529,63C11.435,63 14.061,61.268 15.206,58.597L20.536,46.158C22.137,42.422 25.811,40 29.875,40C31.256,40 32.691,40 34.071,40C38.124,40 41.79,42.409 43.397,46.131C45.215,50.338 47.404,55.404 48.79,58.612C49.94,61.275 52.564,63 55.465,63L55.466,63C59.627,63 63,59.627 63,55.466L63,31.434C63,26.545 61.058,21.856 57.601,18.399C54.144,14.942 49.455,13 44.566,13L37,13L37,9C37,7.895 36.105,7 35,7L34,7L34,3C34,1.896 33.104,1 32,1C30.896,1 30,1.896 30,3L30,7ZM59,31.434L59,55.466C59,57.418 57.418,59 55.466,59C55.466,59 55.465,59 55.465,59C54.16,59 52.979,58.224 52.462,57.026C51.076,53.817 48.887,48.751 47.069,44.544C44.829,39.358 39.72,36 34.071,36C32.691,36 31.256,36 29.875,36C24.211,36 19.091,39.376 16.86,44.582C16.86,44.582 11.529,57.022 11.529,57.022C11.015,58.222 9.835,59 8.529,59L8.528,59C7.592,59 6.695,58.628 6.033,57.967C5.372,57.305 5,56.408 5,55.472L5,31.434C5,27.606 6.521,23.934 9.228,21.228C11.934,18.521 15.606,17 19.434,17C27.301,17 36.699,17 44.566,17C48.394,17 52.066,18.521 54.772,21.228C57.479,23.934 59,27.606 59,31.434ZM31,13L33,13L33,11L32.002,11L31,11L31,13Z"/><g transform="matrix(1,0,0,1,29,-1)"><path d="M21,32L24,32C25.104,32 26,31.104 26,30C26,28.896 25.104,28 24,28L21,28C19.896,28 19,28.896 19,30C19,31.104 19.896,32 21,32Z"/></g><g transform="matrix(1,0,0,1,18,-1)"><path d="M21,32L24,32C25.104,32 26,31.104 26,30C26,28.896 25.104,28 24,28L21,28C19.896,28 19,28.896 19,30C19,31.104 19.896,32 21,32Z"/></g><g transform="matrix(6.12323e-17,1,-1,6.12323e-17,76,1)"><path d="M21,32L24,32C25.104,32 26,31.104 26,30C26,28.896 25.104,28 24,28L21,28C19.896,28 19,28.896 19,30C19,31.104 19.896,32 21,32Z"/></g><g transform="matrix(6.12323e-17,1,-1,6.12323e-17,76,12)"><path d="M21,32L24,32C25.104,32 26,31.104 26,30C26,28.896 25.104,28 24,28L21,28C19.896,28 19,28.896 19,30C19,31.104 19.896,32 21,32Z"/></g><path d="M15,27L10,27C8.896,27 8,27.896 8,29C8,30.104 8.896,31 10,31L15,31L15,36C15,37.104 15.896,38 17,38C18.104,38 19,37.104 19,36L19,31L24,31C25.104,31 26,30.104 26,29C26,27.896 25.104,27 24,27L19,27L19,22C19,20.896 18.104,20 17,20C15.896,20 15,20.896 15,22L15,27Z"/></g></svg>