<?xml version="1.0" ?><!DOCTYPE svg  PUBLIC '-//W3C//DTD SVG 1.1//EN'  'http://www.w3.org/Graphics/SVG/1.1/DTD/svg11.dtd'><svg xmlns="http://www.w3.org/2000/svg" xmlns:xlink="http://www.w3.org/1999/xlink" xmlns:serif="http://www.serif.com/" width="100%" height="100%" viewBox="0 0 64 64" version="1.1" xml:space="preserve" style="fill-rule:evenodd;clip-rule:evenodd;stroke-linejoin:round;stroke-miterlimit:2;"><g transform="matrix(1.08235,0,0,1,-2.55294,0)"><path d="M49.848,26C49.848,24.895 49.021,24 48,24L31,24C29.979,24 29.152,24.895 29.152,26L29.152,48C29.152,49.105 29.979,50 31,50L48,50C49.021,50 49.848,49.105 49.848,48L49.848,26ZM46.152,28L46.152,46C46.152,46 32.848,46 32.848,46C32.848,46 32.848,28 32.848,28L46.152,28Z"/></g><g transform="matrix(1,0,0,1,1,1)"><path d="M39.038,30.373L34.838,33.373C33.939,34.014 33.731,35.264 34.373,36.162C35.014,37.061 36.264,37.269 37.162,36.627L41.362,33.627C42.261,32.986 42.469,31.736 41.827,30.838C41.186,29.939 39.936,29.731 39.038,30.373Z"/></g><g transform="matrix(1,0,0,1,3.1,7)"><path d="M39.038,30.373L34.838,33.373C33.939,34.014 33.731,35.264 34.373,36.162C35.014,37.061 36.264,37.269 37.162,36.627L41.362,33.627C42.261,32.986 42.469,31.736 41.827,30.838C41.186,29.939 39.936,29.731 39.038,30.373Z"/></g><path d="M57.192,21.751C58.499,21.419 59.704,20.764 60.677,19.84C62.17,18.425 63,16.502 63,14.5C63,9.534 63,3 63,3C63,1.895 62.105,1 61,1L3,1C1.895,1 1,1.895 1,3L1,14.5C1,16.502 1.83,18.425 3.323,19.84C4.294,20.762 5.496,21.416 6.8,21.749L6.8,61C6.8,62.105 7.695,63 8.8,63L55,63C56.101,63 56.995,62.11 57,61.01L57.192,21.751ZM26.2,19.516C26.096,19.627 25.989,19.735 25.877,19.84C24.424,21.219 22.455,22 20.4,22C20.4,22 20.4,22 20.4,22C18.345,22 16.376,21.219 14.923,19.84C14.811,19.735 14.704,19.627 14.6,19.516C14.496,19.627 14.389,19.735 14.277,19.84C13.306,20.762 12.104,21.416 10.8,21.749L10.8,59L12.6,59L12.6,39C12.6,37.895 13.495,37 14.6,37L25,37C26.105,37 27,37.895 27,39L27,59L53.01,59L53.192,21.747C51.891,21.414 50.692,20.76 49.723,19.84C49.611,19.735 49.504,19.627 49.4,19.516C49.296,19.627 49.189,19.735 49.077,19.84C47.624,21.219 45.655,22 43.6,22C43.6,22 43.6,22 43.6,22C41.545,22 39.576,21.219 38.123,19.84C38.011,19.735 37.904,19.627 37.8,19.516C37.696,19.627 37.589,19.735 37.477,19.84C36.024,21.219 34.055,22 32,22C32,22 32,22 32,22C29.945,22 27.976,21.219 26.523,19.84C26.411,19.735 26.304,19.627 26.2,19.516ZM23,48L23,41C23,41 16.6,41 16.6,41L16.6,59L23,59L23,52L22,52C20.896,52 20,51.104 20,50C20,48.896 20.896,48 22,48L23,48ZM51.4,5L51.4,14.5C51.4,15.416 51.792,16.29 52.475,16.938C53.197,17.622 54.179,18 55.2,18L55.2,18C56.221,18 57.203,17.622 57.925,16.938C58.608,16.29 59,15.416 59,14.5C59,14.5 59,5 59,5L51.4,5ZM16.6,5L16.6,14.5C16.6,15.416 16.992,16.29 17.675,16.938C18.397,17.622 19.379,18 20.4,18L20.4,18C21.421,18 22.403,17.622 23.125,16.938C23.808,16.29 24.2,15.416 24.2,14.5C24.2,14.5 24.2,5 24.2,5L16.6,5ZM28.2,5L28.2,14.5C28.2,15.416 28.592,16.29 29.275,16.938C29.997,17.622 30.979,18 32,18L32,18C33.021,18 34.003,17.622 34.725,16.938C35.408,16.29 35.8,15.416 35.8,14.5C35.8,14.5 35.8,5 35.8,5L28.2,5ZM39.8,5L39.8,14.5C39.8,15.416 40.192,16.29 40.875,16.938C41.597,17.622 42.579,18 43.6,18L43.6,18C44.621,18 45.603,17.622 46.325,16.938C47.008,16.29 47.4,15.416 47.4,14.5C47.4,14.5 47.4,5 47.4,5L39.8,5ZM8.8,18C8.8,18 8.8,18 8.8,18C7.779,18 6.797,17.622 6.075,16.938C5.392,16.29 5,15.416 5,14.5C5,14.5 5,5 5,5L12.6,5L12.6,14.5C12.6,15.416 12.208,16.29 11.525,16.938C10.803,17.622 9.821,18 8.8,18Z"/></svg>