<?xml version="1.0" ?><!DOCTYPE svg  PUBLIC '-//W3C//DTD SVG 1.1//EN'  'http://www.w3.org/Graphics/SVG/1.1/DTD/svg11.dtd'><svg xmlns="http://www.w3.org/2000/svg" xmlns:xlink="http://www.w3.org/1999/xlink" xmlns:serif="http://www.serif.com/" width="100%" height="100%" viewBox="0 0 64 64" version="1.1" xml:space="preserve" style="fill-rule:evenodd;clip-rule:evenodd;stroke-linejoin:round;stroke-miterlimit:2;"><g transform="matrix(1.63001,0,0,1.62663,-20.1602,-9.44039)"><path d="M28.665,8.871L25.923,18.045C25.923,18.045 16.457,18.045 16.457,18.045C14.985,18.045 13.679,18.957 13.186,20.305C12.686,21.675 13.119,23.204 14.28,24.12C14.28,24.12 22.23,30.399 22.23,30.399L19.313,40.157C18.882,41.597 19.455,43.146 20.741,43.975C22,44.785 23.654,44.706 24.825,43.781L32,38.115C32,38.115 39.175,43.781 39.175,43.781C40.346,44.706 42,44.785 43.259,43.975C44.545,43.146 45.118,41.597 44.687,40.157L41.77,30.399C41.77,30.399 49.72,24.12 49.72,24.12C50.881,23.204 51.314,21.675 50.814,20.305C50.321,18.957 49.015,18.045 47.543,18.045L38.077,18.045C38.077,18.045 35.335,8.871 35.335,8.871C34.903,7.425 33.549,6.418 32,6.418C30.451,6.418 29.097,7.425 28.665,8.871ZM31.016,9.576C31.142,9.155 31.548,8.877 32,8.877C32.452,8.877 32.858,9.155 32.984,9.576C32.984,9.576 35.988,19.627 35.988,19.627C36.144,20.148 36.622,20.504 37.164,20.504L47.543,20.504C47.974,20.504 48.365,20.757 48.509,21.151C48.646,21.525 48.518,21.939 48.201,22.189C44.335,25.243 39.596,28.985 39.596,28.985C39.2,29.297 39.035,29.82 39.18,30.304L42.336,40.863C42.455,41.258 42.285,41.679 41.931,41.906C41.55,42.152 41.049,42.13 40.694,41.849C40.694,41.849 32.759,35.583 32.759,35.583C32.314,35.232 31.686,35.232 31.241,35.583L23.306,41.849C22.951,42.13 22.45,42.152 22.069,41.906C21.715,41.679 21.545,41.258 21.664,40.863C21.664,40.863 24.82,30.304 24.82,30.304C24.965,29.82 24.8,29.297 24.404,28.985C24.404,28.985 19.665,25.243 15.799,22.189C15.482,21.939 15.354,21.525 15.491,21.151C15.635,20.757 16.026,20.504 16.457,20.504C16.457,20.504 26.836,20.504 26.836,20.504C27.378,20.504 27.856,20.148 28.012,19.627L31.016,9.576Z"/></g></svg>